<?xml version="1.0" encoding="UTF-8"?>
<svg id="Capa_1" data-name="Capa 1" xmlns="http://www.w3.org/2000/svg" viewBox="0 0 22.78 25.09">
  <defs>
    <style>
      .cls-1 {
        fill: #fff;
      }
    </style>
  </defs>
  <path class="cls-1" d="M11.39,25.09c-.58,0-1.15-.15-1.65-.44-.5-.29-.92-.71-1.21-1.21-.28-.48-.11-1.09.36-1.37.48-.28,1.09-.11,1.37.36.11.2.28.36.48.48.4.23.91.23,1.31,0,.2-.11.36-.28.48-.48.28-.48.89-.64,1.37-.36.48.28.64.89.36,1.37-.29.5-.71.92-1.21,1.21-.5.29-1.07.44-1.65.44ZM21.78,19.32H1c-.44,0-.83-.29-.96-.71-.13-.42.04-.88.4-1.12.02-.01,3.02-2.22,3.02-9.56,0-2.12.82-4.11,2.32-5.61,1.5-1.5,3.49-2.32,5.61-2.32s4.11.82,5.61,2.32c1.5,1.5,2.32,3.49,2.32,5.61,0,7.34,3,9.55,3.03,9.57.36.25.51.71.38,1.12s-.51.7-.95.7ZM3.19,17.32h16.39c-1.07-1.65-2.27-4.58-2.27-9.39,0-1.58-.62-3.07-1.74-4.19-1.12-1.12-2.61-1.74-4.19-1.74s-3.07.62-4.19,1.74c-1.12,1.12-1.74,2.61-1.74,4.19,0,4.82-1.2,7.74-2.27,9.39Z"/>
</svg>