<?xml version="1.0" encoding="UTF-8"?>
<svg id="Capa_1" data-name="Capa 1" xmlns="http://www.w3.org/2000/svg" viewBox="0 0 22.78 25.1">
  <defs>
    <style>
      .cls-1 {
        fill: #010101;
      }
    </style>
  </defs>
  <path class="cls-1" d="M17.17,25.1H5.62c-.88,0-1.71-.34-2.34-.97s-.97-1.46-.97-2.34V6.62H1c-.55,0-1-.45-1-1s.45-1,1-1h4.77v-1.31c0-.88.34-1.71.97-2.34.62-.63,1.46-.97,2.34-.97h4.62c.88,0,1.71.34,2.34.97.62.63.97,1.46.97,2.34v1.31h4.77c.55,0,1,.45,1,1s-.45,1-1,1h-1.31v15.17c0,.88-.34,1.71-.97,2.34s-1.47.97-2.34.97ZM4.31,6.62v15.17c0,.35.14.68.38.93.24.24.58.38.93.38h11.55c.34,0,.68-.14.93-.38.25-.25.38-.58.38-.93V6.62H4.31ZM7.77,4.62h7.24v-1.31c0-.34-.14-.68-.38-.93-.25-.25-.58-.38-.93-.38h-4.62c-.35,0-.68.14-.93.38-.24.24-.38.58-.38.93v1.31ZM13.7,19.32c-.55,0-1-.45-1-1v-6.93c0-.55.45-1,1-1s1,.45,1,1v6.93c0,.55-.45,1-1,1ZM9.08,19.32c-.55,0-1-.45-1-1v-6.93c0-.55.45-1,1-1s1,.45,1,1v6.93c0,.55-.45,1-1,1Z"/>
</svg>