<?xml version="1.0" encoding="UTF-8"?>
<svg id="Capa_1" data-name="Capa 1" xmlns="http://www.w3.org/2000/svg" viewBox="0 0 22.78 25.1">
  <defs>
    <style>
      .cls-1 {
        fill: #010101;
      }
    </style>
  </defs>
  <path class="cls-1" d="M19.48,25.1H3.31c-1.82,0-3.31-1.49-3.31-3.31v-8.08c0-1.82,1.48-3.31,3.31-3.31h1.31v-3.62c0-1.81.7-3.51,1.98-4.79,1.28-1.28,2.98-1.98,4.79-1.98s3.51.7,4.79,1.98c1.28,1.28,1.98,2.98,1.98,4.79v3.62h1.31c1.83,0,3.31,1.48,3.31,3.31v8.08c0,1.83-1.48,3.31-3.31,3.31ZM3.31,12.39c-.72,0-1.31.59-1.31,1.31v8.08c0,.72.59,1.31,1.31,1.31h16.17c.72,0,1.31-.59,1.31-1.31v-8.08c0-.72-.59-1.31-1.31-1.31H3.31ZM6.62,10.39h9.55v-3.62c0-1.28-.5-2.47-1.4-3.37-.9-.9-2.1-1.4-3.37-1.4s-2.47.5-3.38,1.4c-.9.9-1.4,2.1-1.4,3.38v3.62Z"/>
</svg>