<?xml version="1.0" encoding="UTF-8"?>
<svg id="Capa_1" data-name="Capa 1" xmlns="http://www.w3.org/2000/svg" viewBox="0 0 25.09 25.09">
  <defs>
    <style>
      .cls-1 {
        fill: #fff;
      }
    </style>
  </defs>
  <path class="cls-1" d="M12.55,25.09c-1.48,0-2.96-.26-4.35-.77-2.52-.93-4.71-2.69-6.18-4.94C.56,17.12-.15,14.4.03,11.72c.18-2.68,1.24-5.28,2.98-7.33C4.75,2.35,7.16.9,9.78.3c2.62-.59,5.42-.32,7.87.78.5.22.73.82.51,1.32-.22.5-.82.73-1.32.51-2.06-.92-4.41-1.15-6.62-.65-2.2.5-4.23,1.72-5.69,3.44-1.47,1.72-2.36,3.9-2.51,6.16-.15,2.25.45,4.54,1.68,6.44,1.23,1.9,3.07,3.37,5.19,4.15,2.12.78,4.48.86,6.65.22,2.17-.64,4.1-1.99,5.46-3.8,1.35-1.81,2.1-4.05,2.1-6.31v-1.06c0-.55.45-1,1-1s1,.45,1,1v1.06c0,2.69-.89,5.35-2.5,7.51-1.61,2.15-3.91,3.76-6.49,4.52-1.15.34-2.35.51-3.55.51ZM12.55,15.87c-.27,0-.52-.11-.71-.29l-3.46-3.46c-.39-.39-.39-1.02,0-1.41s1.02-.39,1.41,0l2.76,2.76L23.39,2.61c.39-.39,1.02-.39,1.41,0,.39.39.39,1.02,0,1.41l-11.55,11.56c-.19.19-.44.29-.71.29Z"/>
</svg>