<?xml version="1.0" encoding="UTF-8"?>
<svg id="Capa_1" data-name="Capa 1" xmlns="http://www.w3.org/2000/svg" viewBox="0 0 25.23 25.23">
  <defs>
    <style>
      .cls-1 {
        fill: #010101;
      }
    </style>
  </defs>
  <path class="cls-1" d="M19.48,25.23H3.31c-.88,0-1.71-.34-2.34-.97-.63-.63-.97-1.46-.97-2.34V5.76c0-.88.34-1.71.97-2.34s1.46-.97,2.34-.97h8.08c.55,0,1,.45,1,1s-.45,1-1,1H3.31c-.35,0-.68.14-.93.38s-.38.58-.38.93v16.17c0,.35.14.68.38.93.25.25.58.38.93.38h16.17c.35,0,.68-.14.93-.38.25-.25.38-.58.38-.93v-8.08c0-.55.45-1,1-1s1,.45,1,1v8.08c0,.88-.34,1.71-.97,2.34-.63.63-1.46.97-2.34.97ZM7.93,18.31c-.26,0-.52-.1-.71-.29-.25-.25-.35-.61-.26-.95l1.15-4.62c.04-.18.13-.34.26-.46L19.35,1.01c.64-.64,1.53-1.01,2.44-1.01s1.79.36,2.44,1.01c.64.64,1.01,1.53,1.01,2.44s-.36,1.79-1.01,2.44l-10.97,10.97c-.13.13-.29.22-.46.26l-4.62,1.16c-.08.02-.16.03-.24.03ZM9.99,13.2l-.68,2.73,2.73-.68,10.77-10.77c.27-.27.42-.64.42-1.02s-.16-.75-.42-1.02c-.54-.54-1.51-.54-2.05,0h0s-10.77,10.77-10.77,10.77ZM20.05,1.72h0,0Z"/>
</svg>