<?xml version="1.0" encoding="UTF-8"?>
<svg id="Capa_1" data-name="Capa 1" xmlns="http://www.w3.org/2000/svg" xmlns:xlink="http://www.w3.org/1999/xlink" viewBox="0 0 27.71 27.71">
  <defs>
    <style>
      .cls-1, .cls-2 {
        fill: none;
      }

      .cls-2 {
        stroke: #010101;
        stroke-linecap: round;
        stroke-linejoin: round;
        stroke-width: 2px;
      }

      .cls-3 {
        clip-path: url(#clippath);
      }
    </style>
    <clipPath id="clippath">
      <rect class="cls-1" width="27.71" height="27.71"/>
    </clipPath>
  </defs>
  <g class="cls-3">
    <path class="cls-2" d="M20.71,20.71c-1.97,1.5-4.38,2.34-6.86,2.38C5.77,23.09,1.15,13.86,1.15,13.86c1.44-2.68,3.43-5.01,5.84-6.86M11.43,4.9c.79-.19,1.61-.28,2.42-.28,8.08,0,12.7,9.24,12.7,9.24-.7,1.31-1.54,2.55-2.49,3.68M16.3,16.3c-.32.34-.7.61-1.12.8-.42.19-.88.29-1.35.3-.47,0-.93-.08-1.36-.25-.43-.17-.82-.43-1.15-.76-.33-.33-.59-.72-.76-1.15-.17-.43-.26-.89-.25-1.36,0-.46.11-.92.3-1.35.19-.42.46-.81.8-1.12M1.15,1.15l25.4,25.4"/>
  </g>
</svg>