<svg width="219" height="41" viewBox="0 0 219 41" fill="none" xmlns="http://www.w3.org/2000/svg">
<path d="M202.257 40.7113C199.122 40.7113 196.294 40.0424 193.771 38.7044C191.286 37.3665 189.317 35.4552 187.865 32.9705C186.45 30.4857 185.743 27.5805 185.743 24.2548C185.743 20.9674 186.469 18.0813 187.922 15.5965C189.375 13.0736 191.362 11.1432 193.885 9.80523C196.408 8.4673 199.237 7.79834 202.372 7.79834C205.506 7.79834 208.335 8.4673 210.858 9.80523C213.381 11.1432 215.369 13.0736 216.821 15.5965C218.274 18.0813 219 20.9674 219 24.2548C219 27.5423 218.255 30.4475 216.764 32.9705C215.311 35.4552 213.304 37.3665 210.743 38.7044C208.22 40.0424 205.392 40.7113 202.257 40.7113ZM202.257 32.225C204.13 32.225 205.716 31.537 207.016 30.1608C208.354 28.7847 209.023 26.816 209.023 24.2548C209.023 21.6937 208.373 19.725 207.074 18.3488C205.812 16.9727 204.245 16.2846 202.372 16.2846C200.46 16.2846 198.874 16.9727 197.612 18.3488C196.351 19.6868 195.72 21.6554 195.72 24.2548C195.72 26.816 196.332 28.7847 197.555 30.1608C198.817 31.537 200.384 32.225 202.257 32.225Z" fill="white"/>
<path d="M163.979 0C168.222 0 171.93 0.840981 175.103 2.52294C178.275 4.20491 180.722 6.57495 182.442 9.63306C184.201 12.653 185.08 16.1507 185.08 20.1262C185.08 24.0635 184.201 27.5613 182.442 30.6194C180.722 33.6775 178.256 36.0475 175.045 37.7295C171.873 39.4115 168.184 40.2524 163.979 40.2524H148.898V0H163.979ZM163.348 31.7662C167.056 31.7662 169.942 30.7532 172.006 28.7272C174.071 26.7012 175.103 23.8342 175.103 20.1262C175.103 16.4183 174.071 13.5322 172.006 11.4679C169.942 9.4037 167.056 8.37159 163.348 8.37159H158.704V31.7662H163.348Z" fill="white"/>
<path d="M119.666 17.3167C120.637 15.2659 122.131 13.593 124.145 12.2978C126.196 11.0026 128.607 10.355 131.377 10.355C134.075 10.355 136.486 10.9846 138.608 12.2438C140.731 13.467 142.386 15.23 143.573 17.5325C144.797 19.7991 145.408 22.4435 145.408 25.4656C145.408 28.4878 144.797 31.1501 143.573 33.4527C142.386 35.7553 140.713 37.5362 138.554 38.7954C136.432 40.0547 134.039 40.6843 131.377 40.6843C128.571 40.6843 126.142 40.0547 124.091 38.7954C122.077 37.5002 120.602 35.8273 119.666 33.7765V40.2525H115.942V0.317139H119.666V17.3167ZM141.577 25.4656C141.577 23.0192 141.091 20.9144 140.119 19.1515C139.184 17.3526 137.889 15.9855 136.234 15.0501C134.579 14.1146 132.708 13.6469 130.621 13.6469C128.607 13.6469 126.754 14.1326 125.063 15.104C123.408 16.0754 122.095 17.4606 121.123 19.2595C120.152 21.0584 119.666 23.1451 119.666 25.5196C119.666 27.8941 120.152 29.9809 121.123 31.7798C122.095 33.5786 123.408 34.9638 125.063 35.9352C126.754 36.9066 128.607 37.3923 130.621 37.3923C132.708 37.3923 134.579 36.9246 136.234 35.9892C137.889 35.0178 139.184 33.6326 140.119 31.8337C141.091 29.9989 141.577 27.8762 141.577 25.4656Z" fill="white"/>
<path d="M80.4971 25.4653C80.4971 22.4432 81.0907 19.7988 82.278 17.5322C83.5012 15.2296 85.1742 13.4667 87.2969 12.2434C89.4556 10.9842 91.8841 10.3546 94.5824 10.3546C97.3887 10.3546 99.7992 11.0022 101.814 12.2974C103.865 13.5926 105.34 15.2476 106.239 17.2624V10.7863H110.017V40.2522H106.239V33.7222C105.304 35.737 103.811 37.4099 101.76 38.7411C99.7452 40.0363 97.3347 40.6839 94.5284 40.6839C91.8661 40.6839 89.4556 40.0543 87.2969 38.7951C85.1742 37.5359 83.5012 35.755 82.278 33.4524C81.0907 31.1498 80.4971 28.4874 80.4971 25.4653ZM106.239 25.5193C106.239 23.1447 105.754 21.058 104.782 19.2591C103.811 17.4602 102.48 16.0751 100.789 15.1037C99.1336 14.1323 97.2987 13.6466 95.284 13.6466C93.1972 13.6466 91.3264 14.1143 89.6714 15.0497C88.0164 15.9851 86.7032 17.3523 85.7318 19.1512C84.7964 20.9141 84.3287 23.0188 84.3287 25.4653C84.3287 27.8758 84.7964 29.9985 85.7318 31.8334C86.7032 33.6323 88.0164 35.0174 89.6714 35.9888C91.3264 36.9242 93.1972 37.392 95.284 37.392C97.2987 37.392 99.1336 36.9063 100.789 35.9349C102.48 34.9635 103.811 33.5783 104.782 31.7794C105.754 29.9805 106.239 27.8938 106.239 25.5193Z" fill="white"/>
<path d="M76.368 0.317139V40.2525H72.5903V0.317139H76.368Z" fill="white"/>
<path d="M53.561 40.6839C50.7907 40.6839 48.2903 40.0723 46.0596 38.8491C43.865 37.5898 42.1201 35.8269 40.8249 33.5603C39.5656 31.2577 38.936 28.5774 38.936 25.5193C38.936 22.4612 39.5836 19.7988 40.8788 17.5322C42.174 15.2296 43.937 13.4667 46.1676 12.2434C48.3982 10.9842 50.8987 10.3546 53.669 10.3546C56.4393 10.3546 58.9397 10.9842 61.1703 12.2434C63.4369 13.4667 65.1999 15.2296 66.4591 17.5322C67.7543 19.7988 68.4019 22.4612 68.4019 25.5193C68.4019 28.5414 67.7543 31.2038 66.4591 33.5064C65.1639 35.8089 63.383 37.5898 61.1164 38.8491C58.8498 40.0723 56.3313 40.6839 53.561 40.6839ZM53.561 37.392C55.5038 37.392 57.3027 36.9602 58.9577 36.0968C60.6127 35.1973 61.9439 33.8661 62.9512 32.1032C63.9946 30.3043 64.5163 28.1097 64.5163 25.5193C64.5163 22.9289 64.0126 20.7522 63.0052 18.9893C61.9978 17.1904 60.6666 15.8592 59.0117 14.9958C57.3567 14.0963 55.5578 13.6466 53.615 13.6466C51.6722 13.6466 49.8733 14.0963 48.2183 14.9958C46.5633 15.8592 45.2322 17.1904 44.2248 18.9893C43.2534 20.7522 42.7677 22.9289 42.7677 25.5193C42.7677 28.1097 43.2534 30.3043 44.2248 32.1032C45.2322 33.8661 46.5454 35.1973 48.1644 36.0968C49.8193 36.9602 51.6182 37.392 53.561 37.392Z" fill="white"/>
<path d="M0 21.364C0 17.6583 0.809501 14.3484 2.4285 11.4341C4.04751 8.48396 6.26014 6.19937 9.06641 4.58037C11.8727 2.92539 15.0028 2.0979 18.4566 2.0979C22.666 2.0979 26.2638 3.10528 29.25 5.12004C32.2721 7.09882 34.4668 9.90509 35.8339 13.5388H31.4087C30.3293 10.9844 28.6743 8.98765 26.4437 7.54854C24.2491 6.10943 21.5867 5.38987 18.4566 5.38987C15.6863 5.38987 13.1859 6.03747 10.9553 7.33267C8.7606 8.62788 7.03367 10.4987 5.77444 12.9452C4.51522 15.3557 3.88561 18.162 3.88561 21.364C3.88561 24.5661 4.51522 27.3723 5.77444 29.7828C7.03367 32.1934 8.7606 34.0462 10.9553 35.3414C13.1859 36.6366 15.6863 37.2842 18.4566 37.2842C21.5867 37.2842 24.2491 36.5827 26.4437 35.1795C28.6743 33.7404 30.3293 31.7616 31.4087 29.2432H35.8339C34.4668 32.841 32.2721 35.6292 29.25 37.608C26.2278 39.5868 22.6301 40.5762 18.4566 40.5762C15.0028 40.5762 11.8727 39.7667 9.06641 38.1477C6.26014 36.4927 4.04751 34.2081 2.4285 31.2939C0.809501 28.3797 0 25.0697 0 21.364Z" fill="white"/>
</svg>
